<?xml version="1.0" encoding="UTF-8"?>
<svg width="1947px" height="1947px" viewBox="0 0 1947 1947" version="1.1" xmlns="http://www.w3.org/2000/svg" xmlns:xlink="http://www.w3.org/1999/xlink">
    <!-- Generator: Sketch 48.2 (47327) - http://www.bohemiancoding.com/sketch -->
    <title>Group 9</title>
    <desc>Created with Sketch.</desc>
    <defs>
        <path d="M263.5,862 C301.681951,862 380.785859,698.421625 444.918584,535 C485.861328,430.670583 527,324.5773 527,267.098237 C527,119.583954 409.027032,0 263.5,0 C117.972968,0 0,119.583954 0,267.098237 C0,326.888934 43.3165617,434.438599 86.7451327,543 C150.46257,702.278883 226.298362,862 263.5,862 Z" id="path-1"></path>
    </defs>
    <g id="Page-1" stroke="none" stroke-width="1" fill="none" fill-rule="evenodd">
        <g id="Group-9">
            <g id="Group-8">
                <g id="Group-6">
                    <circle id="Oval-4" fill="#FFFFFF" cx="973.5" cy="973.5" r="973.5"></circle>
                    <g id="Group-3" transform="translate(333.000000, 334.000000)">
                        <polygon id="Rectangle" fill="#D8D8D8" points="904 190 1281 417.381818 1281 866 904 672.418182"></polygon>
                        <polygon id="Rectangle" fill="#D8D8D8" points="0 190 527 417.381818 527 866 0 672.418182"></polygon>
                        <polygon id="Rectangle" fill="#A4A4A4" points="904 186 904 668.418182 527 862 527 413.381818"></polygon>
                        <g id="Group-2" transform="translate(264.000000, 0.000000)">
                            <g id="Group">
                                <g id="Oval-3">
                                    <use fill="#95C6E8" fill-rule="evenodd" xlink:href="#path-1"></use>
                                    <path stroke="#FFFFFF" stroke-width="45" d="M263.5,884.5 C252.871652,884.5 243.1447,880.003168 233.649624,872.288799 C226.421487,866.416228 219.039956,858.389879 211.266392,848.211437 C197.482672,830.163499 182.090178,804.804582 165.166172,772.729449 C135.235655,716.003792 100.811476,638.740891 65.8546733,551.356956 C32.0589315,466.875403 19.4239229,434.215154 5.77919083,393.987383 C-12.8524978,339.056932 -22.5,297.964977 -22.5,267.098237 C-22.5,107.225345 105.477739,-22.5 263.5,-22.5 C421.522261,-22.5 549.5,107.225345 549.5,267.098237 C549.5,296.838156 540.309257,337.02166 522.682835,390.521011 C509.53603,430.423919 495.254495,468.326022 465.863485,543.219558 C431.519958,630.732992 395.751561,711.204174 364.349488,770.336029 C346.958057,803.085063 331.023693,829.112035 316.757186,847.622602 C308.755762,858.004323 301.16184,866.190717 293.751319,872.166669 C284.079464,879.966194 274.2191,884.5 263.5,884.5 Z"></path>
                                </g>
                                <ellipse id="Oval" fill="#FFFFFF" cx="261.5" cy="262" rx="163.5" ry="169"></ellipse>
                            </g>
                        </g>
                    </g>
                </g>
                <text id="RAMP" font-family="Montserrat-Medium, Montserrat" font-size="330" font-weight="400" letter-spacing="27.5" fill="#A6C3D7">
                    <tspan x="413" y="1596">RAMP</tspan>
                </text>
            </g>
        </g>
    </g>
</svg>